<svg width="16" height="19" viewBox="0 0 16 19" fill="none" xmlns="http://www.w3.org/2000/svg">
<path d="M14.3092 7.78388L13.9793 7.26653L13.5197 7.66827C13.2973 7.85894 13.0099 7.89417 12.751 7.76256C12.4883 7.62902 12.3363 7.36738 12.3443 7.06283C12.3459 7.00285 12.3467 6.9414 12.3467 6.88024C12.3467 5.55188 11.9639 4.27442 11.2396 3.18594C10.7314 2.42207 10.081 1.7875 9.32787 1.31486C8.91449 1.05535 8.46803 0.857671 8.00522 0.714325L7.81688 0.656006L7.68532 1.22408C7.66887 1.28878 7.25868 2.8243 5.21482 4.59597C5.06875 4.72257 4.91669 4.85094 4.7557 4.9868C3.08939 6.39307 0.807299 8.31901 0.892194 12.1794C0.935953 14.1705 1.71909 16.0335 3.09741 17.4255C3.73093 18.0653 4.45757 18.5724 5.24432 18.9336C4.91343 18.3797 4.72201 17.7267 4.72201 17.028C4.72201 15.7864 5.25936 14.4831 6.31913 13.1542C7.08552 12.1932 7.84671 11.5799 7.87873 11.5543L8.20313 11.2946L8.52753 11.5543C8.55956 11.5799 9.32074 12.1932 10.0871 13.1542C11.1469 14.4831 11.6843 15.7864 11.6843 17.028C11.6843 17.7236 11.4946 18.3739 11.1664 18.9262C13.7266 17.7411 15.5164 15.0701 15.5164 11.972C15.5164 10.4756 15.0989 9.0274 14.3092 7.78388ZM4.79669 10.9208L4.04445 10.1383L4.79669 9.35584L5.54894 10.1383L4.79669 10.9208ZM6.69222 8.9513L5.93997 8.1688L6.69222 7.3863L7.44447 8.1688L6.69222 8.9513Z" fill="white"/>
</svg>
