<svg width="19" height="18" viewBox="0 0 19 18" fill="none" xmlns="http://www.w3.org/2000/svg">
<path d="M15.9882 13.7975L14.5615 14.1896C12.8475 14.6607 11.0844 14.8963 9.32142 14.8963C7.55842 14.8963 5.79542 14.6607 4.08137 14.1896L2.65466 13.7975C1.97273 15.053 1.56885 16.5091 1.49146 17.9999H17.1515C17.0741 16.5091 16.6703 15.053 15.9882 13.7975Z" fill="white"/>
<path d="M3.01538 0V1.20938C3.01538 2.76834 4.30916 4.03664 5.89945 4.03664C7.4897 4.03664 8.78347 2.76834 8.78347 1.20938H9.85935C9.85935 2.76834 11.1531 4.03664 12.7434 4.03664C14.3337 4.03664 15.6274 2.76834 15.6274 1.20938V0H3.01538Z" fill="white"/>
<path d="M14.0104 7.46163C14.0528 6.47356 14.237 5.54839 14.4799 4.69761C13.9553 4.94961 13.366 5.09132 12.7434 5.09132C11.2853 5.09132 10.0087 4.31472 9.32145 3.16132C8.63418 4.31476 7.35758 5.09132 5.89949 5.09132C5.27695 5.09132 4.68762 4.94961 4.16302 4.69761C4.40585 5.54839 4.59007 6.47356 4.63246 7.46163C4.71358 9.35205 4.2397 11.1657 3.22339 12.8585L4.37181 13.1741C7.60988 14.0641 11.033 14.0641 14.271 13.1741L15.4195 12.8585C14.4032 11.1657 13.9294 9.35205 14.0104 7.46163ZM9.85935 12.0821H8.78348V11.0274H9.85935V12.0821Z" fill="white"/>
</svg>
