<svg width="20" height="16" viewBox="0 0 20 16" fill="none" xmlns="http://www.w3.org/2000/svg">
<path d="M14.362 9.80581H13.517L13.2176 9.57249C14.2657 8.58737 14.8967 7.30843 14.8967 5.91716C14.8967 2.81489 11.7844 0.300232 7.94476 0.300232C4.10514 0.300232 0.992798 2.81489 0.992798 5.91716C0.992798 9.01944 4.10514 11.5341 7.94476 11.5341C9.66671 11.5341 11.2496 11.0243 12.4689 10.1774L12.7577 10.4194V11.102L18.1053 15.4141L19.6989 14.1265L14.362 9.80581ZM7.94476 9.80581C5.28163 9.80581 3.13186 8.06888 3.13186 5.91716C3.13186 3.76545 5.28163 2.02852 7.94476 2.02852C10.6079 2.02852 12.7577 3.76545 12.7577 5.91716C12.7577 8.06888 10.6079 9.80581 7.94476 9.80581Z" fill="#BEBEBE"/>
</svg>
