<svg width="31" height="22" viewBox="0 0 31 22" fill="none" xmlns="http://www.w3.org/2000/svg">
<path d="M29.3112 2.70754C28.2102 1.45726 26.1776 0.947266 22.2956 0.947266H8.20411C4.2333 0.947266 2.16619 1.49016 1.06937 2.82127C0 4.1191 0 6.03136 0 8.67797V13.7224C0 18.8497 1.2688 21.453 8.20411 21.453H22.2957C25.6621 21.453 27.5275 21.003 28.7344 19.8996C29.972 18.7681 30.5 16.9207 30.5 13.7224V8.67797C30.5 5.88689 30.4173 3.96336 29.3112 2.70754ZM19.5811 11.8966L13.1822 15.0915C13.0391 15.1629 12.8827 15.1983 12.7265 15.1983C12.5496 15.1983 12.3731 15.1528 12.2167 15.0624C11.9224 14.892 11.7426 14.5872 11.7426 14.2584V7.88919C11.7426 7.56097 11.9219 7.25644 12.2156 7.08594C12.5095 6.91544 12.875 6.90379 13.1799 7.05511L19.5788 10.2294C19.9044 10.3909 20.1089 10.7119 20.1093 11.0622C20.1097 11.4128 19.9062 11.7344 19.5811 11.8966Z" fill="#464646"/>
</svg>
