<?xml version="1.0" encoding="utf-8"?>
<!-- Generator: Adobe Illustrator 23.1.0, SVG Export Plug-In . SVG Version: 6.00 Build 0)  -->
<svg version="1.1" id="Слой_1" xmlns="http://www.w3.org/2000/svg" xmlns:xlink="http://www.w3.org/1999/xlink" x="0px" y="0px"
	 viewBox="0 0 630.1 549.3" style="enable-background:new 0 0 630.1 549.3;" xml:space="preserve">
<style type="text/css">
	.st0{fill:url(#SVGID_1_);}
	.st1{opacity:0.13;fill:#FFFFFF;enable-background:new    ;}
</style>
<g>
		<linearGradient id="SVGID_1_" gradientUnits="userSpaceOnUse" x1="350.27" y1="305.0444" x2="114.27" y2="-16.9556" gradientTransform="matrix(1 0 0 -1 0 478)">
		<stop  offset="0" style="stop-color:#9180FF"/>
		<stop  offset="1" style="stop-color:#573DFF"/>
	</linearGradient>
	<path class="st0" d="M0,43C0,19.3,19.3,0,43,0h544.1c26.6,0,46.8,23.9,42.4,50.2l-78.6,463.3c-4.2,24.6-28.3,40.5-52.6,34.6
		L32.8,434.6C13.6,429.9,0,412.7,0,392.8V43z"/>
</g>
<path class="st1" d="M626.2,152.7c0.4-0.5,0.8-1.1,1.2-1.7c-0.3-0.6-0.5-1.4-0.5-2.3c0.1-6.8,3-12.9,1.9-19.7
	c-0.8-5.2-0.4-10,0-14.9c-0.5-2.3-0.7-4.6-0.8-6.9c-0.9-1.4-1.2-3.2-0.2-5c0.1-0.2,0.2-0.4,0.3-0.5c0.1-1.7,0.3-3.3,0.6-5
	c-0.5-0.7-0.8-1.5-0.8-2.5c-0.2-2.5-1.5-4.5-1.3-7.1c0.1-2.1,1.1-3.9,1.6-6c0.9-3.6,0.7-7.1,2.1-10.5c-0.8-0.7-1.5-1.5-1.7-2.5
	c-0.7-2.9,0.3-5.6,2-7.8c-1.5-1.2-2-3.2-1.7-5.2c0.3-1.7,0.9-3.3,1.9-4.8c0-0.2-0.1-0.3-0.1-0.5c-0.2-2.7,0.2-5.3-0.1-8
	c-0.4-2.8-0.8-5.5,0.1-8.3c0.1-0.3,0.2-0.6,0.4-0.8c-0.1-0.3-0.2-0.7-0.2-1.1c-0.3-2.9-2.1-5.4-2.4-8.3c-0.2-2.8,0.5-5.4,0.8-8.2
	c0.4-4.3-3.2-7.6-6.4-10.5c-0.4,0.2-0.8,0.4-1.3,0.6c-2.3,0.6-5.7-0.8-6.1-3.4c-0.2-0.1-0.3-0.2-0.4-0.3c0,0,0,0,0,0c0,0,0,0,0,0
	c-1.8,1-4,1.1-5.7-0.4c-0.2,0-0.3,0-0.5,0c-2.3,0-3.9-1.5-4.6-3.4c-20.1,2-40.1-2-60.2-0.7c-9.1,0.6-17.6,1.5-26.8,0.9
	c-8.7-0.6-17.5-1.4-25.9,1.7c-2.1,0.8-3.8,0.1-4.9-1.2c-3.2,4.2-6.1,8.7-8.8,13.4c-36.2,62.7-14.7,142.9,48,179.1
	c31.3,18.1,66.9,21.8,99.2,13.2c-0.5-2.7-1-5.4-0.3-8.4c0.7-2.7,2.2-5,2.6-7.8c0.3-2.6,0.2-5.3,0.7-7.9c0.8-4.7,2.1-9,2.2-13.9
	c0.1-2,0.2-4,0.5-6C626.9,159.8,623.7,156.3,626.2,152.7z"/>
<path class="st1" d="M630.7,50.3c0-0.2-0.1-0.3-0.1-0.5c-0.2-2.7,0.2-5.3-0.1-8c-0.4-2.8-0.8-5.5,0.1-8.3c0.1-0.3,0.2-0.6,0.4-0.8
	c-0.1-0.3-0.2-0.7-0.2-1.1c-0.3-2.9-2.1-5.4-2.4-8.3c-0.2-2.8,0.5-5.4,0.8-8.2c0.4-4.3-3.2-7.6-6.4-10.5c-0.4,0.2-0.8,0.4-1.3,0.6
	c-2.3,0.6-5.7-0.8-6.1-3.4c-0.2-0.1-0.3-0.2-0.4-0.3c0,0,0,0,0,0c0,0,0,0,0,0c-1.8,1-4,1.1-5.7-0.4c-0.2,0-0.3,0-0.5,0
	c-1,0-1.9-0.3-2.7-0.8c-0.9,0.4-2.1,0.6-3.4,0.2c-0.1,0-2.7,0.6-3.2,0.7c-1.2,0.1-2.5-0.1-3.7-0.4c-0.9-0.2-1.7-0.5-2.6-0.8
	c-0.8,0.2-1.7,0.1-2.6-0.2c-0.2,0-0.4,0.1-0.6,0.1c-8.7,1-17.8-0.5-26.6-0.6c-7.4-0.1-14.6-1.1-21.9-1.8c-1.1,0.8-2.4,1.3-4.1,1
	c-6.6-1.1-14.1-1.4-20.8-0.4c-4,0.6-8.6,0.6-12.8-0.3c-1.1,1.3-2.8,2-4.9,1.6c-7.2-1.7-15.3,2.3-22.2-0.6c-2.8-1.2-4.8-3-8-3
	c-3.3,0-6.1,1.9-9.5,1.9c-1.9,0-3.2-0.9-4-2.1c-7.5,8.2-14.2,17.3-20,27.3c-43.3,74.9-17.6,170.7,57.3,214
	c42.7,24.6,92.1,26.9,134.8,10.5c-0.5-1.7-1.8-3.6-2.1-5.4c-0.3-2-0.5-4-0.8-6c-0.5-4.2,0.6-8.4,0.7-12.6c0.2-4.8,0.6-9.9,0.2-14.7
	c-0.4-4.5-2.1-8.4-1-12.9c0.7-2.7,2.2-5,2.6-7.8c0.3-2.6,0.2-5.3,0.7-7.9c0.8-4.7,2.1-9,2.2-13.9c0.1-2,0.2-4,0.5-6
	c-3.5-0.2-6.8-3.6-4.2-7.3c0.4-0.5,0.8-1.1,1.2-1.7c-0.3-0.6-0.5-1.4-0.5-2.3c0.1-6.8,3-12.9,1.9-19.7c-1.1-7.1,0.1-13.5,0.3-20.6
	c-1.7-1.4-2.7-3.8-1.4-6.3c0.7-1.4,1.4-2.8,2.1-4.2c-1.1-0.8-2-2.1-2.1-3.8c-0.2-2.5-1.5-4.5-1.3-7.1c0.1-2.1,1.1-3.9,1.6-6
	c0.9-3.6,0.7-7.1,2.1-10.5c-0.8-0.7-1.5-1.5-1.7-2.5c-0.7-2.9,0.3-5.6,2-7.8c-1.5-1.2-2-3.2-1.7-5.2
	C629.1,53.3,629.7,51.7,630.7,50.3z"/>
</svg>
