<svg width="3" height="16" viewBox="0 0 3 16" fill="none" xmlns="http://www.w3.org/2000/svg">
<path d="M2.66569 10.3188C2.66644 9.90622 2.65376 0.000791155 2.65376 0.000791155L2.43665 -6.10352e-05C2.43665 -6.10352e-05 0.666748 1.03995 0.666748 8.75778C2.02629 9.14634 1.45426 10.6941 1.35129 10.8913C1.35129 11.284 1.38061 15.3201 1.38061 15.3201L1.38532 15.3176C1.38375 15.3234 1.38218 15.3267 1.38218 15.3316C1.38061 15.7021 1.6698 16.0033 2.0239 15.9999C2.378 16.0015 2.66719 15.7004 2.66562 15.3316C2.66712 15.3267 2.66712 15.3234 2.66562 15.3201L2.66637 15.3167C2.66644 15.3168 2.66644 10.7718 2.66569 10.3188Z" fill="white"/>
</svg>
