<svg width="5" height="16" viewBox="0 0 5 16" fill="none" xmlns="http://www.w3.org/2000/svg">
<path d="M3.83668 -6.10352e-05H3.37833L3.51508 4.27442H2.96442V-6.10352e-05H2.56119V4.30083H2.10563V-6.10352e-05L1.6602 0.000791065V4.30168H1.11927L1.27405 -6.10352e-05H0.854155L0.346655 3.63838C0.346655 3.63838 0.333252 3.77534 0.333252 3.82774C0.333252 4.38788 0.626614 4.88951 1.08313 5.21534C2.58856 6.72832 1.56055 8.27262 1.56151 8.6397C1.56239 9.04477 1.56239 15.2938 1.56239 15.2938C1.56335 15.2987 1.56055 15.302 1.56151 15.3078C1.56239 15.6906 1.91 15.9999 2.33972 15.9999C2.76983 15.9999 3.11928 15.6889 3.11928 15.3078C3.11832 15.302 3.11744 15.2987 3.11648 15.2938H3.11832C3.11832 15.2938 3.11832 9.12316 3.11928 8.65369C3.11928 8.2264 2.25068 6.45234 3.70185 5.13198C3.70281 5.13035 3.706 5.12623 3.70879 5.12417C4.06287 4.82518 4.29695 4.41308 4.33126 3.95029C4.33405 3.91813 4.33309 3.8352 4.33309 3.8352L3.83668 -6.10352e-05Z" fill="white"/>
</svg>
