<svg width="18" height="33" viewBox="0 0 18 33" fill="none" xmlns="http://www.w3.org/2000/svg">
<path d="M6.30618 0H5.48114L5.72729 8.65582H4.7361V0H4.01029V8.7093H3.19028V0L2.38851 0.0017255V8.71103H1.41484L1.69344 0H0.937626L0.0241264 7.36784C0.0241264 7.36784 0 7.64519 0 7.7513C0 8.88558 0.528052 9.90138 1.34978 10.5612C4.05955 13.625 2.20914 16.7522 2.21087 17.4955C2.21245 18.3158 2.21245 30.9701 2.21245 30.9701C2.21417 30.98 2.20914 30.9866 2.21087 30.9984C2.21245 31.7736 2.83815 32.4 3.61163 32.4C4.38583 32.4 5.01484 31.7701 5.01484 30.9984C5.01312 30.9866 5.01154 30.98 5.00982 30.9701H5.01312C5.01312 30.9701 5.01312 18.4745 5.01484 17.5239C5.01484 16.6586 3.45137 13.0661 6.06348 10.3924C6.0652 10.3891 6.07095 10.3807 6.07597 10.3766C6.71331 9.77111 7.13466 8.93662 7.19641 7.99946C7.20144 7.93433 7.19972 7.76639 7.19972 7.76639L6.30618 0Z" fill="white"/>
<path d="M17.998 20.8957C17.9994 20.0602 17.9765 0.00172568 17.9765 0.00172568L17.5857 0C17.5857 0 14.3999 2.10602 14.3999 17.7346C16.8471 18.5215 15.8174 21.6558 15.6321 22.0549C15.6321 22.8503 15.6849 31.0233 15.6849 31.0233L15.6933 31.0182C15.6905 31.03 15.6877 31.0368 15.6877 31.0467C15.6849 31.7969 16.2054 32.4067 16.8428 32.3999C17.4802 32.4033 18.0007 31.7934 17.9979 31.0467C18.0006 31.0368 18.0006 31.03 17.9979 31.0233L17.9992 31.0165C17.9993 31.0166 17.9994 21.8129 17.998 20.8957Z" fill="white"/>
</svg>
