<svg width="20" height="19" viewBox="0 0 20 19" fill="none" xmlns="http://www.w3.org/2000/svg">
<path d="M12.721 13.8451C12.8663 13.707 13.0452 13.6051 13.2419 13.5485C13.4385 13.4918 13.6469 13.482 13.8485 13.5201C14.05 13.5581 14.2386 13.6428 14.3975 13.7666C14.5564 13.8905 14.6807 14.0496 14.7595 14.2299L15.3125 13.5544V10.7076C15.3131 10.546 15.3474 10.3861 15.4135 10.2371C15.4795 10.0882 15.576 9.95314 15.6973 9.83981C15.8039 9.74003 15.9284 9.65914 16.0649 9.60094C15.7541 8.50788 15.0506 7.59822 14.0168 6.95875C12.9366 6.29067 11.5476 5.9375 10 5.9375C8.24609 5.9375 6.66758 6.40463 5.55523 7.25284C4.37422 8.15334 3.75 9.4437 3.75 10.9844C3.75 12.1516 4.13023 13.3945 4.82602 14.5197C4.8566 14.48 4.88364 14.438 4.90684 14.394L5.34551 13.5606C5.37146 13.5113 5.41136 13.4698 5.46072 13.4408C5.51009 13.4119 5.56697 13.3965 5.625 13.3965C5.68303 13.3965 5.73991 13.4119 5.78927 13.4408C5.83864 13.4698 5.87853 13.5113 5.90449 13.5606L6.34316 14.3941C6.43423 14.5662 6.58126 14.7059 6.76246 14.7924L7.63977 15.2091C7.69166 15.2337 7.73531 15.2717 7.76582 15.3185C7.79632 15.3654 7.81248 15.4195 7.81248 15.4746C7.81248 15.5297 7.79632 15.5838 7.76582 15.6307C7.73531 15.6776 7.69166 15.7155 7.63977 15.7401L6.76246 16.1569C6.64025 16.2154 6.53294 16.2986 6.44797 16.4006C7.49062 17.2721 8.68047 17.7668 9.83828 17.8092L12.6846 13.8865C12.6954 13.8717 12.7075 13.8578 12.721 13.8451ZM9.0625 10.6875C9.0625 10.6088 9.09542 10.5333 9.15403 10.4776C9.21263 10.4219 9.29212 10.3906 9.375 10.3906C9.45788 10.3906 9.53737 10.4219 9.59597 10.4776C9.65458 10.5333 9.6875 10.6088 9.6875 10.6875V11.5781H10.625C10.7079 11.5781 10.7874 11.6094 10.846 11.6651C10.9046 11.7208 10.9375 11.7963 10.9375 11.875C10.9375 11.9537 10.9046 12.0292 10.846 12.0849C10.7874 12.1406 10.7079 12.1719 10.625 12.1719H9.375C9.29212 12.1719 9.21263 12.1406 9.15403 12.0849C9.09542 12.0292 9.0625 11.9537 9.0625 11.875V10.6875ZM7.1875 10.3906C7.10465 10.3907 7.02522 10.422 6.96663 10.4777C6.90805 10.5333 6.87509 10.6088 6.875 10.6875C6.875 10.7662 6.84208 10.8417 6.78347 10.8974C6.72487 10.9531 6.64538 10.9844 6.5625 10.9844C6.47962 10.9844 6.40013 10.9531 6.34153 10.8974C6.28292 10.8417 6.25 10.7662 6.25 10.6875C6.25 10.4513 6.34877 10.2248 6.52459 10.0577C6.7004 9.89071 6.93886 9.79687 7.1875 9.79687C7.43614 9.79687 7.6746 9.89071 7.85041 10.0577C8.02623 10.2248 8.125 10.4513 8.125 10.6875C8.125 10.7662 8.09208 10.8417 8.03347 10.8974C7.97487 10.9531 7.89538 10.9844 7.8125 10.9844C7.72962 10.9844 7.65013 10.9531 7.59153 10.8974C7.53292 10.8417 7.5 10.7662 7.5 10.6875C7.49991 10.6088 7.46695 10.5333 7.40837 10.4777C7.34978 10.422 7.27035 10.3907 7.1875 10.3906ZM12.4738 13.1815C12.4481 13.2372 11.8242 14.5469 10 14.5469C8.17578 14.5469 7.55187 13.2372 7.52621 13.1815C7.49339 13.1095 7.49187 13.0282 7.52199 12.9552C7.55211 12.8821 7.61142 12.8234 7.68697 12.7918C7.76252 12.7602 7.84816 12.7582 7.92521 12.7864C8.00225 12.8146 8.06443 12.8706 8.09816 12.9422C8.11992 12.9876 8.59894 13.9531 10 13.9531C11.4198 13.9531 11.8966 12.9536 11.9012 12.9435C11.9346 12.8717 11.9967 12.8153 12.0737 12.7869C12.1508 12.7584 12.2366 12.7601 12.3123 12.7915C12.388 12.823 12.4476 12.8818 12.4778 12.9548C12.5081 13.0279 12.5066 13.1094 12.4738 13.1815ZM12.5 10.6875C12.5 10.7662 12.4671 10.8417 12.4085 10.8974C12.3499 10.9531 12.2704 10.9844 12.1875 10.9844C12.1046 10.9844 12.0251 10.9531 11.9665 10.8974C11.9079 10.8417 11.875 10.7662 11.875 10.6875C11.875 10.4513 11.9738 10.2248 12.1496 10.0577C12.3254 9.89071 12.5639 9.79687 12.8125 9.79687C13.0611 9.79687 13.2996 9.89071 13.4754 10.0577C13.6512 10.2248 13.75 10.4513 13.75 10.6875C13.75 10.7662 13.7171 10.8417 13.6585 10.8974C13.5999 10.9531 13.5204 10.9844 13.4375 10.9844C13.3546 10.9844 13.2751 10.9531 13.2165 10.8974C13.1579 10.8417 13.125 10.7662 13.125 10.6875C13.125 10.6088 13.0921 10.5333 13.0335 10.4776C12.9749 10.4219 12.8954 10.3906 12.8125 10.3906C12.7296 10.3906 12.6501 10.4219 12.5915 10.4776C12.5329 10.5333 12.5 10.6088 12.5 10.6875Z" fill="white"/>
<path d="M13.7069 1.85955C13.5885 2.4336 13.2128 3.27271 12.4358 4.23826C12.203 4.52771 11.7618 5.03426 11.2478 5.41923C12.4197 5.56444 13.4787 5.91739 14.3579 6.46119C15.5426 7.19399 16.3432 8.24325 16.6851 9.50605C16.9933 9.53637 17.2788 9.67375 17.4868 9.89181C17.6949 10.1099 17.8108 10.3933 17.8124 10.6876V11.5232C18.4234 10.5526 18.7473 9.44343 18.7499 8.31257C18.7499 5.46224 16.6835 2.99792 13.7069 1.85955Z" fill="white"/>
<path d="M16.5747 10.0938C16.4932 10.0927 16.4123 10.1072 16.3367 10.1363C16.2612 10.1655 16.1926 10.2087 16.135 10.2635C16.0728 10.3215 16.0234 10.3906 15.9895 10.4668C15.9556 10.543 15.9379 10.6248 15.9375 10.7076V13.6563C15.9375 13.7222 15.9143 13.7862 15.8716 13.8381V13.8385L14.669 15.3074C14.6227 15.379 14.5684 15.4458 14.5071 15.5066L13.6903 16.5746C13.6409 16.6366 13.5679 16.6778 13.487 16.6893C13.406 16.7007 13.3236 16.6815 13.2573 16.6358C13.1911 16.5901 13.1464 16.5216 13.1328 16.4449C13.1192 16.3682 13.1378 16.2896 13.1847 16.2258L14.0149 15.1401C14.0246 15.1276 14.0352 15.1157 14.0468 15.1047C14.1624 14.9949 14.2282 14.8463 14.2299 14.6909C14.2316 14.5355 14.1691 14.3857 14.0558 14.2736C13.9426 14.1615 13.7876 14.0961 13.6241 14.0913C13.4606 14.0865 13.3017 14.1428 13.1814 14.2481L10.595 17.8125H14.2251L16.8902 14.6579C16.8973 14.6495 16.9049 14.6415 16.9129 14.6338C17.0003 14.5513 17.0695 14.4532 17.1166 14.3451C17.1638 14.237 17.1879 14.1211 17.1875 14.0041V10.6875C17.1868 10.5322 17.1224 10.3834 17.0079 10.2725C16.8935 10.1616 16.7381 10.0975 16.5747 10.0938Z" fill="white"/>
<path d="M6.80115 15.4746L6.48287 15.3234C6.1809 15.1793 5.93586 14.9465 5.78408 14.6596L5.62494 14.3572L5.4658 14.6596C5.31403 14.9465 5.069 15.1793 4.76701 15.3234L4.44873 15.4746L4.76701 15.6258C5.06898 15.77 5.31402 16.0028 5.4658 16.2896L5.62494 16.592L5.78408 16.2897C5.93585 16.0028 6.18089 15.77 6.48287 15.6258L6.80115 15.4746Z" fill="white"/>
<path d="M5.16406 6.78979C6.38691 5.85731 8.10441 5.34375 10 5.34375C10.4544 5.34375 11.2337 4.7546 11.9393 3.87793C12.5805 3.08078 13.0312 2.21821 13.112 1.65359C12.1071 1.34303 11.0567 1.18571 10 1.1875C5.17523 1.1875 1.25 4.38377 1.25 8.3125C1.25 10.0732 2.0448 11.7505 3.4632 13.0474C3.24375 12.3794 3.12977 11.6841 3.125 10.9844C3.125 9.25738 3.83008 7.80692 5.16406 6.78979Z" fill="white"/>
</svg>
