<svg width="27" height="27" viewBox="0 0 27 27" fill="none" xmlns="http://www.w3.org/2000/svg">
<g clip-path="url(#clip0)">
<path d="M0.959237 13.0181L6.95016 15.3401L9.26901 23.0843C9.41738 23.5803 10.0014 23.7636 10.3891 23.4345L13.7285 20.6074C14.0786 20.3112 14.5772 20.2965 14.943 20.5722L20.9661 25.1134C21.3808 25.4264 21.9684 25.1904 22.0724 24.67L26.4846 2.62985C26.5982 2.06141 26.0603 1.5872 25.5391 1.79654L0.952217 11.6462C0.345463 11.8892 0.35075 12.7813 0.959237 13.0181ZM8.8953 14.104L20.6038 6.61541C20.8142 6.48122 21.0307 6.77669 20.85 6.95075L11.1871 16.2783C10.8475 16.6067 10.6284 17.046 10.5663 17.523L10.2372 20.0561C10.1936 20.3943 9.73606 20.4279 9.64618 20.1006L8.38024 15.4813C8.23525 14.9544 8.44654 14.3917 8.8953 14.104Z" fill="#464646"/>
</g>
<defs>
<clipPath id="clip0">
<rect width="26" height="27" fill="white" transform="translate(0.5)"/>
</clipPath>
</defs>
</svg>
