<svg width="24" height="24" viewBox="0 0 24 24" fill="none" xmlns="http://www.w3.org/2000/svg">
<path d="M21.3767 5.27179C18.9625 5.27179 16.9984 3.22229 16.9984 0.703125C16.9984 0.314758 16.6968 0 16.3246 0H12.7158C12.3438 0 12.0419 0.314758 12.0419 0.703125V16.1422C12.0419 17.6232 10.8871 18.828 9.46788 18.828C8.04863 18.828 6.894 17.6232 6.894 16.1422C6.894 14.6611 8.04863 13.4562 9.46788 13.4562C9.84007 13.4562 10.1417 13.1415 10.1417 12.7531V8.98737C10.1417 8.59918 9.84007 8.28424 9.46788 8.28424C5.31559 8.28424 1.9375 11.8094 1.9375 16.1422C1.9375 20.475 5.31559 24 9.46788 24C13.6202 24 16.9984 20.475 16.9984 16.1422V9.30817C18.3394 10.0543 19.8318 10.4438 21.3767 10.4438C21.7489 10.4438 22.0506 10.129 22.0506 9.74066V5.97491C22.0506 5.58673 21.7489 5.27179 21.3767 5.27179Z" fill="#464646"/>
</svg>
