<svg width="23" height="25" viewBox="0 0 23 25" fill="none" xmlns="http://www.w3.org/2000/svg">
<path d="M14.2664 4.41249C12.7789 5.02499 10.9414 3.79999 10.9414 3.79999C10.9414 3.79999 11.5539 1.69999 13.0414 1.17499C14.5289 0.649988 16.3664 1.78749 16.3664 1.78749C16.3664 1.78749 15.7539 3.79999 14.2664 4.41249Z" stroke="white" stroke-width="2" stroke-miterlimit="10" stroke-linecap="round" stroke-linejoin="round"/>
<path d="M16.8039 6.33752C15.4914 6.07502 14.0914 6.42502 13.0414 7.12502C12.0789 7.73752 10.8539 7.73752 9.97888 7.12502C8.84138 6.42502 7.44138 6.07502 6.12888 6.33752C2.89138 6.86252 0.616379 10.275 1.05388 13.95C1.49138 17.625 5.07888 24.1875 8.31638 23.6625C8.75388 23.575 9.19138 23.4 9.54138 23.1375C10.6789 22.35 12.2539 22.35 13.3914 23.1375C13.7414 23.4 14.1789 23.575 14.6164 23.6625C17.8539 24.1875 21.4414 17.625 21.8789 13.95C22.4039 10.275 20.1289 6.86252 16.8039 6.33752Z" stroke="white" stroke-width="2" stroke-miterlimit="10" stroke-linecap="round" stroke-linejoin="round"/>
<path d="M7.96643 1L8.31643 1.2625C10.3289 2.75 11.4664 5.1125 11.4664 7.5625" stroke="white" stroke-width="2" stroke-miterlimit="10" stroke-linecap="round" stroke-linejoin="round"/>
</svg>
