<svg width="30" height="30" viewBox="0 0 30 30" fill="none" xmlns="http://www.w3.org/2000/svg">
<path d="M27.0703 6.5625H5.74219C5.21401 6.56309 4.70763 6.77317 4.33415 7.14665C3.96067 7.52013 3.75059 8.02651 3.75 8.55469V15H1.40625C1.28193 15 1.1627 15.0494 1.07479 15.1373C0.986886 15.2252 0.9375 15.3444 0.9375 15.4688C0.9375 15.5931 0.986886 15.7123 1.07479 15.8002C1.1627 15.8881 1.28193 15.9375 1.40625 15.9375H3.75V18.75H2.8125C2.68818 18.75 2.56895 18.7994 2.48104 18.8873C2.39314 18.9752 2.34375 19.0944 2.34375 19.2188C2.34375 19.3431 2.39314 19.4623 2.48104 19.5502C2.56895 19.6381 2.68818 19.6875 2.8125 19.6875H3.75V21.4453C3.75059 21.9735 3.96067 22.4799 4.33415 22.8534C4.70763 23.2268 5.21401 23.4369 5.74219 23.4375H27.0703C27.5985 23.4369 28.1049 23.2268 28.4784 22.8534C28.8518 22.4799 29.0619 21.9735 29.0625 21.4453V8.55469C29.0619 8.02651 28.8518 7.52013 28.4784 7.14665C28.1049 6.77317 27.5985 6.56309 27.0703 6.5625ZM5.74219 7.5H27.0703C27.1432 7.50005 27.2158 7.50765 27.2871 7.52268L17.3903 15.8971C17.1156 16.1307 16.7668 16.2589 16.4062 16.2589C16.0457 16.2589 15.6969 16.1307 15.4222 15.8971L5.52539 7.52268C5.59668 7.50765 5.66933 7.50005 5.74219 7.5ZM4.6875 21.4453V19.6875H5.625C5.74932 19.6875 5.86855 19.6381 5.95646 19.5502C6.04436 19.4623 6.09375 19.3431 6.09375 19.2188C6.09375 19.0944 6.04436 18.9752 5.95646 18.8873C5.86855 18.7994 5.74932 18.75 5.625 18.75H4.6875V17.8125H6.09375C6.21807 17.8125 6.3373 17.7631 6.42521 17.6752C6.51311 17.5873 6.5625 17.4681 6.5625 17.3438C6.5625 17.2194 6.51311 17.1002 6.42521 17.0123C6.3373 16.9244 6.21807 16.875 6.09375 16.875H4.6875V15.9375H6.5625C6.68682 15.9375 6.80605 15.8881 6.89396 15.8002C6.98186 15.7123 7.03125 15.5931 7.03125 15.4688C7.03125 15.3444 6.98186 15.2252 6.89396 15.1373C6.80605 15.0494 6.68682 15 6.5625 15H4.6875V8.55469C4.68764 8.40175 4.72132 8.2507 4.78617 8.11219C4.80611 8.13788 4.82865 8.16145 4.85344 8.1825L13.7896 15.7438L4.77826 21.8715C4.71846 21.7374 4.68754 21.5922 4.6875 21.4453ZM27.0703 22.5H5.74219C5.67718 22.4998 5.61233 22.4935 5.54848 22.4814L14.5324 16.3723L14.8166 16.6125C15.2603 16.9898 15.8238 17.197 16.4062 17.197C16.9887 17.197 17.5522 16.9898 17.9959 16.6125L18.2801 16.3723L27.264 22.4814C27.2002 22.4935 27.1353 22.4998 27.0703 22.5ZM28.125 21.4453C28.125 21.5922 28.094 21.7374 28.0342 21.8715L19.0229 15.7437L28.0309 8.12162C28.0928 8.2576 28.1249 8.40527 28.125 8.55469V21.4453Z" fill="#9180FF" fill-opacity="0.75"/>
<path d="M2.8125 17.8125C2.93682 17.8125 3.05605 17.7631 3.14396 17.6752C3.23186 17.5873 3.28125 17.4681 3.28125 17.3438C3.28125 17.2194 3.23186 17.1002 3.14396 17.0123C3.05605 16.9244 2.93682 16.875 2.8125 16.875H1.875C1.75068 16.875 1.63145 16.9244 1.54354 17.0123C1.45564 17.1002 1.40625 17.2194 1.40625 17.3438C1.40625 17.4681 1.45564 17.5873 1.54354 17.6752C1.63145 17.7631 1.75068 17.8125 1.875 17.8125H2.8125Z" fill="#9180FF" fill-opacity="0.75"/>
</svg>
