<?xml version="1.0" encoding="utf-8"?>
<!-- Generator: Adobe Illustrator 23.1.0, SVG Export Plug-In . SVG Version: 6.00 Build 0)  -->
<svg version="1.1" id="Слой_1" xmlns="http://www.w3.org/2000/svg" xmlns:xlink="http://www.w3.org/1999/xlink" x="0px" y="0px"
	 viewBox="0 0 635.1 555.4" style="enable-background:new 0 0 635.1 555.4;" xml:space="preserve">
<style type="text/css">
	.st0{fill:url(#SVGID_1_);}
	.st1{opacity:0.13;fill:#FFFFFF;enable-background:new    ;}
</style>
<g>
	
		<linearGradient id="SVGID_1_" gradientUnits="userSpaceOnUse" x1="13.9588" y1="-29.5555" x2="651.9588" y2="403.4444" gradientTransform="matrix(1 0 0 -1 0 424.024)">
		<stop  offset="0.5211" style="stop-color:#9180FF"/>
		<stop  offset="1" style="stop-color:#573DFF"/>
	</linearGradient>
	<path class="st0" d="M634.9,14.6c0-0.3,0-0.5,0-0.8C633.8,6.1,627.3,0,619.1,0h-26.2c-3,0.1-5.9,0.1-8.9,0h-70.9
		c-0.6,0.3-1.3,0.4-2.1,0.4c-7.4,0-14.8-0.3-22.2-0.4H16C7.2,0,0,7.2,0,16v398c0,7.4,5,13.8,12.2,15.5l514.2,125.4
		c9,2.2,18-3.7,19.6-12.9l88.8-523.4c0.1-0.7,0.2-1.4,0.2-2.1C635,15.9,634.9,15.2,634.9,14.6z"/>
</g>
<path class="st1" d="M634.3,10.5c-0.2-0.4-0.3-0.8-0.5-1.2c-0.3-0.9-0.2-1.9,0.1-2.9c-0.4-0.2-0.8-0.3-1.1-0.5
	c-1.1-0.5-2.1-1-3.1-1.7c-1.6-1.1-2.5-2.8-2.4-4.5c0,0,0,0,0,0c-0.8,0.4-1.8,0.5-2.9,0.3c-8.6-1.6-17.4-0.5-26-0.2
	c-8.5,0.4-17,0.3-25.5-0.4c-4.5-0.4-8.9-0.9-13.3-1.4c-0.7,0.4-1.6,0.7-2.6,0.7c-6.1,0.1-12.3,0.7-18.4,0.3
	c-4.9-0.3-10.9-2-15.5,0.4c-2,1-3.9,0.6-5.3-0.4c-1.1,0.1-2-0.1-2.8-0.6c-0.8,1.2-2.1,2-3.9,2c-10,0-19.9-0.5-29.9-0.5
	c-0.9,0-1.6-0.2-2.3-0.5c-17.7,57.2,5.7,121.1,59.7,152.3c22.6,13.1,47.5,18.6,71.8,17.4c-0.7-5.2,1.2-10.6,2.3-15.8
	c0.9-4,0.8-8.1,1.4-12.1c0.7-4.7,2-9.1,3.9-13.5c0.1-0.2,0.2-0.4,0.3-0.6c-0.2-6.6,0.6-14.3,4.3-19.9c-0.2-6.3,2-12.1,2.7-18.4
	c0.5-4.7,1.5-9.5,2.1-14.3c0.1-2.4,0.2-4.8,0.4-7.2c0-0.4,0-0.9-0.1-1.3c-0.1-0.9,0.1-1.7,0.4-2.3c0.1-1.1,0.3-2.3,0.4-3.4
	c0.1-0.9,0.4-1.6,0.8-2.1c0-0.4,0-0.8,0-1.2c0.2-2.1,0.8-4.1,1.4-6.2c0-0.5,0-1.1,0.1-1.8c1.2-5,0-10.4,2-15.3c0.4-1,1-1.8,1.7-2.5
	c-0.2-1-0.4-1.9-0.6-2.9c-0.3-1.4-0.1-2.7,0.5-3.7c0-0.1-0.1-0.2-0.1-0.4c-0.4-1.2-0.1-2.8,0.5-3.9c0.1-0.1,0.2-0.3,0.3-0.4
	c-0.2-1.9-0.3-3.7-0.5-5.5c-0.1-1.1,0.2-2,0.6-2.8C635,11.4,634.6,11,634.3,10.5z"/>
<path class="st1" d="M616.4,136.3c0.1-0.1,0.1-0.2,0.2-0.3c1.8-3.2,2.5-6.8,3.1-10.4c0-1.5,0-2.9,0-4.2c0-5.1,0-10.1,0.9-15.1
	c1.3-7.3,3-14.6,4.2-21.9c0.6-3.7,0.8-7.4,1.5-11.1c0.7-3.6,1.8-7,2.1-10.7c0.1-1.2,0.5-2.1,1.1-2.8c0-0.3,0-0.5,0.1-0.8
	c-0.2-0.6-0.3-1.3-0.2-2c0.1-0.8,0.2-1.6,0.4-2.4c0.2-3.3,0.4-6.5,1.2-9.8c1-4.3,2.3-8.4,2.5-12.8c0-1,0.3-1.9,0.8-2.6
	c-0.1-0.3-0.1-0.7-0.2-1c-0.3-1.4-0.1-2.7,0.5-3.7c0-0.1-0.1-0.2-0.1-0.4c-0.4-1.2-0.1-2.8,0.5-3.9c0.1-0.1,0.2-0.3,0.3-0.4
	c-0.2-1.9-0.3-3.7-0.5-5.5c-0.1-1.1,0.2-2,0.6-2.8c-0.5-0.4-0.9-0.8-1.2-1.3c-0.2-0.4-0.3-0.8-0.5-1.2c-0.3-1-0.2-2.1,0.1-3
	c-0.3-0.1-0.6-0.2-0.9-0.3c-0.8-0.4-1.6-0.8-2.4-1.2c-0.3-0.1-0.6-0.3-0.8-0.4c-0.3-0.1-1-0.4-0.3-0.2c-1.9-0.8-3.3-2.2-3.6-4
	c-0.5,0.1-1,0-1.6-0.1c-8.6-1.6-17.4-0.5-26-0.2c-8.5,0.4-17,0.3-25.5-0.4c-1.2-0.1-2.4-0.2-3.5-0.3c-1,0.7-2.3,1.1-3.8,0.9
	c-8.8-1.3-17.9-1.4-26.8-2c-3.7-0.2-7.5-0.4-11.2-0.2c-3.1,0.2-6.1,0.5-9,1.2c0,0-0.1,0-0.1,0c-0.9,0.2-1.8,0.4-2.6,0.7
	c-0.4,0.1-0.8,0.2-1.2,0.2c-3,48.4,20.8,96.6,65.7,122.4c11.6,6.7,23.7,11.4,36.1,14.3C616.3,136.5,616.4,136.4,616.4,136.3z"/>
</svg>
