<svg width="87" height="219" viewBox="0 0 87 219" fill="none" xmlns="http://www.w3.org/2000/svg">
<path d="M42.917 0H37.3022L38.9774 58.5069H32.2318V0H27.2923V58.8684H21.7117V0L16.2552 0.0116631V58.8801H9.62877L11.5248 0H6.38107L0.164193 49.8011C0.164193 49.8011 0 51.6758 0 52.393C0 60.0599 3.59369 66.926 9.18604 71.3858C27.6275 92.0948 15.0344 113.232 15.0462 118.257C15.0569 123.801 15.0569 209.335 15.0569 209.335C15.0687 209.402 15.0344 209.447 15.0462 209.526C15.0569 214.766 19.3152 219 24.5792 219C29.848 219 34.1288 214.742 34.1288 209.526C34.1171 209.447 34.1063 209.402 34.0946 209.335H34.1171C34.1171 209.335 34.1171 124.874 34.1288 118.448C34.1288 112.6 23.4885 88.3172 41.2653 70.2448C41.2771 70.2225 41.3162 70.1661 41.3504 70.1379C45.6878 66.0455 48.5553 60.4049 48.9756 54.0704C49.0098 53.6302 48.9981 52.4951 48.9981 52.4951L42.917 0Z" fill="#BB01DA" fill-opacity="0.05"/>
<path d="M86.3205 141.239C86.3296 135.592 86.1753 0.0116643 86.1753 0.0116643L83.5338 0C83.5338 0 62 14.2351 62 119.873C78.5411 125.191 71.5813 146.377 70.3286 149.075C70.3286 154.451 70.6853 209.694 70.6853 209.694L70.7426 209.66C70.7235 209.74 70.7044 209.786 70.7044 209.853C70.6853 214.923 74.2038 219.045 78.512 219C82.8203 219.022 86.3387 214.9 86.3196 209.853C86.3379 209.786 86.3379 209.74 86.3196 209.694L86.3288 209.649C86.3296 209.65 86.3296 147.439 86.3205 141.239Z" fill="#BB01DA" fill-opacity="0.05"/>
</svg>
